<svg id="Layer_1" height="512" viewBox="0 0 32 32" width="512" xmlns="http://www.w3.org/2000/svg" data-name="Layer 1"><path d="m27.958 5h-17.4a3.037 3.037 0 0 0 -2.358 1.118l-6.52 7.982a3.012 3.012 0 0 0 0 3.8l6.52 7.982a3.037 3.037 0 0 0 2.359 1.118h17.4a3.034 3.034 0 0 0 3.041-3.02v-15.96a3.034 3.034 0 0 0 -3.042-3.02z" fill="#fb8890"/><path d="m27.958 25h-17.4a3.037 3.037 0 0 1 -2.358-1.118l-6.52-7.982a2.968 2.968 0 0 1 -.506-.9 3.014 3.014 0 0 0 .506 2.9l6.52 7.982a3.037 3.037 0 0 0 2.359 1.118h17.4a3.034 3.034 0 0 0 3.041-3.02v-2a3.034 3.034 0 0 1 -3.042 3.02z" fill="#ff7581"/><path d="m21.414 16 3.535-3.536a1 1 0 0 0 -1.414-1.414l-3.535 3.536-3.535-3.536a1 1 0 0 0 -1.414 1.414l3.535 3.536-3.535 3.536a1 1 0 0 0 0 1.414 1.013 1.013 0 0 0 1.414 0l3.535-3.536 3.535 3.536a1.015 1.015 0 0 0 1.414 0 1 1 0 0 0 0-1.414z" fill="#d5eafe"/></svg>