<?xml version="1.0"?>
<svg xmlns="http://www.w3.org/2000/svg" xmlns:xlink="http://www.w3.org/1999/xlink" xmlns:svgjs="http://svgjs.com/svgjs" version="1.1" width="512" height="512" x="0" y="0" viewBox="0 0 480 480" style="enable-background:new 0 0 512 512" xml:space="preserve" class=""><g><linearGradient xmlns="http://www.w3.org/2000/svg" id="linear-gradient" gradientUnits="userSpaceOnUse" x1="195.95" x2="414.19" y1="186.98" y2="405.22"><stop stop-opacity="1" stop-color="#f42836" offset="0"/><stop stop-opacity="1" stop-color="#f25c67" offset="0.25"/><stop stop-opacity="1" stop-color="#fb8890" offset="0.71"/><stop stop-opacity="1" stop-color="#fb8890" offset="0.7837837837837838"/></linearGradient><g xmlns="http://www.w3.org/2000/svg" id="Layer_2" data-name="Layer 2"><g id="_03.C_" data-name="03.C_"><rect id="background" fill="#fb8890" height="480" rx="240" width="480" data-original="#3cb53f" class=""/><path d="m469.81 309.39a240.56 240.56 0 0 1 -147 155.93l-132.17-132.21c-87.85-225.95 148.85-154 148.85-154z" fill="url(#linear-gradient)" data-original="url(#linear-gradient)"/><path d="m140.4 240c0-61.8 45.9-109.2 109.2-109.2 38.1 0 71.7 18.9 90 48.6l-41.4 24c-9.3-16.2-27.3-25.8-48.6-25.8-37.2 0-61.2 24.9-61.2 62.4s24 62.4 61.2 62.4c21.3 0 39.6-9.6 48.6-25.8l41.4 24c-18 29.7-51.6 48.6-90 48.6-63.3 0-109.2-47.4-109.2-109.2z" fill="#ffffff" data-original="#ffffff" class=""/></g></g></g></svg>
