<?xml version="1.0"?>
<svg xmlns="http://www.w3.org/2000/svg" xmlns:xlink="http://www.w3.org/1999/xlink" xmlns:svgjs="http://svgjs.com/svgjs" version="1.1" width="512" height="512" x="0" y="0" viewBox="0 0 455.431 455.431" style="enable-background:new 0 0 512 512" xml:space="preserve"><g>
<path xmlns="http://www.w3.org/2000/svg" style="" d="M405.493,412.764c-69.689,56.889-287.289,56.889-355.556,0c-69.689-56.889-62.578-300.089,0-364.089  s292.978-64,355.556,0S475.182,355.876,405.493,412.764z" fill="#fb8890" data-original="#8dc640"/>
<g xmlns="http://www.w3.org/2000/svg" style="opacity:0.2;">
	<path style="" d="M229.138,313.209c-62.578,49.778-132.267,75.378-197.689,76.8   c-48.356-82.489-38.4-283.022,18.489-341.333c51.2-52.622,211.911-62.578,304.356-29.867   C377.049,112.676,330.116,232.142,229.138,313.209z" fill="#ffffff" data-original="#ffffff"/>
</g>
<path xmlns="http://www.w3.org/2000/svg" style="" d="M335.804,335.964c-8.533,8.533-22.756,8.533-32.711,0l-75.378-75.378l-75.378,75.378  c-8.533,8.533-24.178,8.533-32.711,0c-8.533-8.533-8.533-24.178,0-32.711l76.8-75.378l-76.8-75.378  c-8.533-8.533-8.533-22.756,0-32.711c8.533-8.533,24.178-8.533,32.711,0l75.378,76.8l75.378-76.8c8.533-8.533,22.756-8.533,32.711,0  c8.533,8.533,8.533,24.178,0,32.711l-75.378,75.378l75.378,75.378C345.76,313.209,345.76,327.431,335.804,335.964z" fill="#ffffff" data-original="#ffffff"/>
<g xmlns="http://www.w3.org/2000/svg">
</g>
<g xmlns="http://www.w3.org/2000/svg">
</g>
<g xmlns="http://www.w3.org/2000/svg">
</g>
<g xmlns="http://www.w3.org/2000/svg">
</g>
<g xmlns="http://www.w3.org/2000/svg">
</g>
<g xmlns="http://www.w3.org/2000/svg">
</g>
<g xmlns="http://www.w3.org/2000/svg">
</g>
<g xmlns="http://www.w3.org/2000/svg">
</g>
<g xmlns="http://www.w3.org/2000/svg">
</g>
<g xmlns="http://www.w3.org/2000/svg">
</g>
<g xmlns="http://www.w3.org/2000/svg">
</g>
<g xmlns="http://www.w3.org/2000/svg">
</g>
<g xmlns="http://www.w3.org/2000/svg">
</g>
<g xmlns="http://www.w3.org/2000/svg">
</g>
<g xmlns="http://www.w3.org/2000/svg">
</g>
</g></svg>
